<svg width="48" height="50" viewBox="0 0 48 50" fill="none" xmlns="http://www.w3.org/2000/svg">
<path d="M11.5432 26.3088L0.836858 32.0213C0.0583019 32.4366 -0.229528 33.4102 0.198285 34.1808L3.49024 40.1215C3.91648 40.8906 4.88692 41.1627 5.65132 40.7302L16.7509 34.4388C17.8172 33.8348 19.1369 34.6228 19.1101 35.8481L18.8396 47.9102C18.8207 48.7878 19.519 49.5129 20.3967 49.5255L26.8972 49.6214C27.7749 49.634 28.4937 48.9294 28.5 48.0517L28.5818 36.106C28.5896 34.8808 29.9281 34.1321 30.9772 34.7628L41.7826 41.2712C42.5281 41.7195 43.4954 41.482 43.9484 40.738L47.5077 34.8839C47.9701 34.1227 47.7122 33.1286 46.9368 32.6882L36.3264 26.6721C35.2412 26.0571 35.2632 24.4843 36.3673 23.9008L47.1586 18.1929C47.9434 17.7777 48.2312 16.7978 47.7987 16.024L44.3998 9.95911C43.9704 9.19313 43 8.92418 42.2371 9.35986L31.2666 15.6323C30.2002 16.2426 28.8759 15.4546 28.9026 14.2247L29.17 2.30252C29.1904 1.42487 28.4905 0.699799 27.6129 0.687214L21.1123 0.592842C20.2347 0.580261 19.5159 1.28489 19.5096 2.16254L19.4278 14.2073C19.42 15.4389 18.0689 16.1876 17.0198 15.5427L6.13104 8.84868C5.37607 8.38469 4.38676 8.63163 3.94007 9.3976L0.459376 15.3445C0.0158351 16.1026 0.276927 17.0778 1.03975 17.5135L11.5825 23.5422C12.6615 24.1587 12.6379 25.7221 11.5416 26.3072L11.5432 26.3088Z" fill="black"/>
</svg>
