<svg width="32" height="32" viewBox="0 0 32 32" fill="none" xmlns="http://www.w3.org/2000/svg">
<g clip-path="url(#clip0_111_151)">
<path d="M13.0112 1C13.6313 1 14.1617 1.4433 14.2698 2.05547C15.101 6.77342 16.0826 12.0534 16.9032 16.6764C17.5524 20.3362 18.7213 27.0912 19.2385 30.0755C19.3704 30.846 18.7873 31.5532 18.0062 31.569C16.6235 31.5981 15.1749 31.6429 13.8767 31.4661C9.86854 30.9199 6.60186 27.8722 5.85248 23.8852C4.98172 19.257 4.19539 14.6129 3.37476 9.97677C2.98424 7.78931 2.46706 4.93162 2.02113 2.50932C1.876 1.723 2.48025 1 3.27713 1H13.0112Z" fill="#212121"/>
<path d="M30.1812 2.34047C30.1812 1.57789 29.5189 0.994747 28.7616 1.07127C23.062 1.66233 20.2466 5.8288 20.3152 10.6576C20.3864 15.6235 24.0041 19.5605 28.7326 20.1726C29.5004 20.2729 30.1812 19.6792 30.1812 18.9061C30.1812 15.3702 30.1812 5.86574 30.1812 2.34047Z" fill="#212121"/>
<path d="M28.7087 21.9326C24.5422 22.5764 21.2439 25.9091 20.6053 30.0834C20.4866 30.8566 21.0882 31.5558 21.8693 31.5558H28.904C29.6085 31.5558 30.1811 30.9832 30.1811 30.2787V23.1991C30.1811 22.4155 29.4818 21.8165 28.7087 21.9352V21.9326Z" fill="#212121"/>
</g>
<defs>
<clipPath id="clip0_111_151">
<rect width="28.181" height="30.5928" fill="white" transform="translate(2 1)"/>
</clipPath>
</defs>
</svg>
