<?xml version="1.0" standalone="no"?>
<!DOCTYPE svg PUBLIC "-//W3C//DTD SVG 20010904//EN"
 "http://www.w3.org/TR/2001/REC-SVG-20010904/DTD/svg10.dtd">
<svg version="1.0" xmlns="http://www.w3.org/2000/svg"
 width="512.000000pt" height="512.000000pt" viewBox="0 0 512.000000 512.000000"
 preserveAspectRatio="xMidYMid meet">
<metadata>
Created by potrace 1.14, written by Peter Selinger 2001-2017
</metadata>
<g transform="translate(0.000000,512.000000) scale(0.100000,-0.100000)"
fill="#000000" stroke="none">
<path d="M457 4946 c-62 -23 -91 -50 -118 -112 -22 -49 -22 -81 0 -204 6 -30
13 -68 16 -85 2 -16 7 -39 9 -50 2 -11 7 -40 12 -65 4 -25 8 -47 9 -50 2 -9
17 -95 21 -120 2 -14 8 -45 13 -70 10 -48 14 -70 61 -330 16 -91 32 -178 35
-195 3 -16 10 -57 15 -90 17 -105 20 -119 30 -165 5 -25 17 -88 25 -140 18
-110 21 -124 36 -205 6 -33 12 -69 14 -80 2 -16 49 -284 69 -395 2 -14 14 -79
25 -145 12 -66 24 -133 27 -150 2 -16 7 -41 9 -55 3 -14 9 -50 15 -80 5 -30
12 -71 15 -90 3 -19 8 -42 10 -50 2 -8 6 -31 9 -50 3 -19 8 -48 11 -65 3 -16
12 -66 20 -110 8 -44 17 -96 20 -115 3 -19 15 -80 26 -135 11 -55 22 -116 25
-135 17 -119 67 -310 103 -394 122 -294 344 -553 616 -723 78 -48 232 -118
324 -147 209 -66 337 -80 694 -79 268 1 311 8 363 60 61 61 75 123 53 234 -5
30 -12 72 -15 94 -3 22 -9 56 -14 75 -5 19 -11 53 -15 75 -3 22 -7 47 -10 55
-2 8 -6 37 -10 63 -3 26 -10 71 -16 100 -5 29 -12 68 -15 87 -2 19 -9 55 -14
80 -5 25 -11 59 -14 75 -5 34 -43 256 -51 295 -2 13 -7 40 -10 60 -3 20 -8 47
-10 60 -3 14 -7 39 -9 55 -3 17 -7 42 -10 55 -6 26 -9 40 -26 145 -29 177 -30
178 -35 205 -8 41 -24 133 -30 170 -3 19 -14 85 -25 145 -11 61 -29 162 -40
225 -11 63 -22 126 -25 140 -4 22 -14 74 -30 165 -3 17 -8 44 -11 60 -3 17 -7
39 -9 50 -7 42 -25 141 -30 165 -3 14 -8 39 -10 55 -3 17 -30 165 -60 330 -30
165 -57 314 -60 330 -35 199 -77 427 -80 446 -5 24 -21 115 -31 174 -3 17 -7
39 -9 50 -2 11 -6 31 -9 45 -3 14 -7 39 -10 55 -2 17 -9 57 -15 90 -6 33 -13
76 -16 95 -15 90 -29 124 -69 165 -25 27 -56 47 -81 54 -64 17 -1638 14 -1688
-3z"/>
<path d="M4545 4943 c-200 -31 -360 -79 -515 -155 -339 -166 -581 -449 -700
-821 -18 -54 -33 -103 -34 -110 -1 -7 -8 -46 -15 -87 -7 -41 -16 -95 -21 -118
-9 -49 -5 -386 5 -447 62 -368 221 -670 480 -913 226 -212 559 -368 847 -398
103 -10 180 33 219 123 18 43 19 88 19 1407 l0 1362 -25 50 c-36 70 -87 104
-167 108 -35 3 -76 2 -93 -1z"/>
<path d="M4448 1580 c-380 -102 -686 -321 -910 -651 -95 -139 -191 -365 -221
-519 -28 -144 -28 -169 4 -232 19 -38 63 -75 111 -96 38 -16 1196 -17 1253 -1
52 15 119 82 134 134 16 57 15 1203 0 1256 -15 48 -66 105 -113 124 -52 22
-138 17 -258 -15z"/>
</g>
</svg>
